<svg width="76" height="22" viewBox="0 0 76 22" fill="none" xmlns="http://www.w3.org/2000/svg">
<rect x="8.43994" y="3.5" width="67" height="15" rx="7.5" stroke="#08B371"/>
<rect x="20.9399" y="8" width="8" height="6" fill="#08B371"/>
<rect x="30.9399" y="8" width="8" height="6" fill="#D5D1D0"/>
<rect x="40.9399" y="8" width="8" height="6" fill="#D5D1D0"/>
<rect x="50.9399" y="8" width="8" height="6" fill="#D5D1D0"/>
<rect x="60.9399" y="8" width="8" height="6" fill="#D5D1D0"/>
<g clip-path="url(#clip0_148_4)">
<path d="M9.99999 20.286C15.1285 20.286 19.286 16.1285 19.286 11C19.286 5.87147 15.1285 1.71399 9.99999 1.71399C4.87147 1.71399 0.713989 5.87147 0.713989 11C0.713989 16.1285 4.87147 20.286 9.99999 20.286Z" fill="#08B371" stroke="#08B371" stroke-width="1.429"/>
<path fill-rule="evenodd" clip-rule="evenodd" d="M10.137 4.957C12.378 5.448 14.074 5.977 15.6 6.442C15.839 6.515 16 6.728 16 6.968L15.997 10.643C15.997 14.497 12.771 16.553 10.16 17.269C10.0553 17.2983 9.94466 17.2983 9.84 17.269C7.23 16.553 4.003 14.496 4.003 10.643L4 6.968C4 6.728 4.162 6.515 4.4 6.442L5.8 6.018L6.398 5.842C7.54315 5.50846 8.69913 5.2133 9.864 4.957C9.95395 4.93743 10.0471 4.93743 10.137 4.957ZM9.97 5.999L9.5 6.109C9.157 6.19 8.82 6.275 8.485 6.363L7.672 6.585L7.052 6.763C6.843 6.825 6.619 6.893 6.349 6.976L5.216 7.33L5.218 10.673C5.218 13.409 7.152 15.376 9.859 16.2L9.969 16.233L10.084 16.199C12.73 15.393 14.637 13.495 14.719 10.849L14.722 10.673L14.724 7.33L13.306 6.889L12.796 6.736L12.479 6.644L11.958 6.499C11.4546 6.3603 10.9489 6.23029 10.441 6.109L9.97 5.999ZM12.763 8.801C12.918 8.913 12.962 9.192 12.873 9.348L12.833 9.404L9.74 12.969C9.67561 13.0406 9.58885 13.0883 9.49386 13.1043C9.39888 13.1203 9.30129 13.1036 9.217 13.057L9.162 13.021L7.255 11.319C7.21516 11.2894 7.18207 11.2516 7.15794 11.2083C7.1338 11.1649 7.11917 11.1169 7.11501 11.0674C7.11085 11.018 7.11725 10.9682 7.1338 10.9214C7.15035 10.8746 7.17667 10.8318 7.211 10.796C7.2756 10.7294 7.36012 10.6857 7.45178 10.6715C7.54343 10.6572 7.63723 10.6732 7.719 10.717L7.779 10.757L9.367 12.01L12.105 8.8C12.242 8.64 12.588 8.675 12.763 8.801Z" fill="white"/>
</g>
<defs>
<clipPath id="clip0_148_4">
<rect width="20" height="20" fill="white" transform="translate(0 1)"/>
</clipPath>
</defs>
</svg>
